<svg id="レイヤー_1" data-name="レイヤー 1" xmlns="http://www.w3.org/2000/svg" viewBox="0 0 1390.4 172.78"><defs><style>.cls-1{fill:#231916;}.cls-2{fill:#d80e19;}</style></defs><path class="cls-1" d="M189.16,119.66h-8.25V81l-16.66,19.14L147.64,81v38.66h-8.25V70.22h8.74L164.25,89l16.16-18.75h8.75Z"/><path class="cls-1" d="M215,70.17v49.49h-8.47V70.17Z"/><path class="cls-1" d="M260.16,77.92H247.08v41.74h-8.47V78H225.52V70.22h34.64Z"/><path class="cls-1" d="M299.05,105.58c0,9.13-7.15,14.74-16.06,14.68-7.26-.05-12-2.36-16.17-6.7l5.17-5.83c3.47,3.57,6.82,5,11,4.78,4.34-.22,7.48-2.53,7.48-6.82,0-3.35-2.53-5.28-7-7.15l-3.29-1.37C272.6,94,268.8,90.07,268.8,83.69c0-8.68,7.37-14.18,15-14.18a18.53,18.53,0,0,1,13.14,5l-4.68,5.77a11.86,11.86,0,0,0-8.46-3c-4,.22-6.44,2.48-6.44,6,0,3.08,2.26,4.9,7,6.88l3.52,1.48C295.36,94.75,299.05,98.87,299.05,105.58Z"/><path class="cls-1" d="M332.38,120.32c-12.54,0-20.35-6.66-20.35-20.18v-30h8.53V99.75c0,8.31,3.79,12.65,11.82,12.65s11.82-4.34,11.82-12.65V70.17h8.53v30C352.73,113.66,344.92,120.32,332.38,120.32Z"/><path class="cls-1" d="M369.23,70.17h15.35c10.77,0,16.27,6.27,16.27,13,0,4.57-1.87,8.25-5.61,10.4a12.48,12.48,0,0,1,7.92,11.88c0,8.3-5.28,14.24-17.76,14.24H369.23Zm15.46,20.34c4.89,0,7.75-2.09,7.75-6.54,0-3.85-2.58-6.32-7.86-6.32h-7.21V90.51ZM394.75,105c0-4.07-2.75-7-8.41-7h-9v14.19h8C391.34,112.18,394.75,109.93,394.75,105Z"/><path class="cls-1" d="M425.94,70.17v49.49h-8.47V70.17Z"/><path class="cls-1" d="M471.31,105.58c0,9.13-7.15,14.74-16.06,14.68-7.26-.05-12-2.36-16.17-6.7l5.17-5.83c3.47,3.57,6.82,5,11,4.78,4.34-.22,7.48-2.53,7.48-6.82,0-3.35-2.53-5.28-7-7.15l-3.29-1.37c-7.59-3.14-11.39-7.1-11.39-13.48,0-8.68,7.37-14.18,15-14.18a18.54,18.54,0,0,1,13.15,5l-4.68,5.77a11.88,11.88,0,0,0-8.47-3c-3.95.22-6.43,2.48-6.43,6,0,3.08,2.26,4.9,7,6.88l3.52,1.48C467.62,94.75,471.31,98.87,471.31,105.58Z"/><path class="cls-1" d="M526.09,119.66h-8.31V97H493.15v22.71h-8.31V70.22h8.31V89.14h24.63v-19h8.31Z"/><path class="cls-1" d="M551.89,70.17v49.49h-8.47V70.17Z"/><path class="cls-1" d="M628.61,119.66H620.3V97H595.66v22.71h-8.3V70.22h8.3V89.14H620.3v-19h8.31Z"/><path class="cls-1" d="M667.05,120.32c-15.45,0-26.06-10.5-26.06-25.52,0-14.41,11.16-25.24,25.84-25.24,6,0,11.55,1.49,16.44,5.5l-4.67,6.43a18.23,18.23,0,0,0-11.77-4.06c-10.06,0-17.16,7.86-17.16,17.37,0,10,7,17.6,17.38,17.6a20.15,20.15,0,0,0,12.49-4l4.73,6.38C679.21,118.83,673.32,120.32,667.05,120.32Z"/><path class="cls-1" d="M736.68,120.32c-15.45,0-26.07-10.5-26.07-25.52,0-14.41,11.17-25.24,25.85-25.24,6,0,11.55,1.49,16.44,5.5l-4.67,6.43a18.23,18.23,0,0,0-11.77-4.06c-10.06,0-17.16,7.86-17.16,17.37,0,10,7,17.6,17.38,17.6a20.1,20.1,0,0,0,12.48-4l4.73,6.38C748.83,118.83,743,120.32,736.68,120.32Z"/><path class="cls-1" d="M758.9,119.66l19.53-49.49h10.06L808,119.66h-9l-4.67-12.37H772.54l-4.73,12.37Zm32.5-20-7.91-21-8,21Z"/><path class="cls-1" d="M817.2,70.17H833c12.42,0,17.76,7.31,17.76,15.72,0,9.46-6.22,15.79-17.76,15.79h-7.43v18H817.2Zm15.24,7.64h-6.82V94h6.76c6.93,0,9.79-3.19,9.79-8.14C842.17,81.16,839,77.81,832.44,77.81Z"/><path class="cls-1" d="M871.87,70.17v49.49H863.4V70.17Z"/><path class="cls-1" d="M917.08,77.92H904v41.74h-8.47V78H882.43V70.22h34.65Z"/><path class="cls-1" d="M917.3,119.66l19.53-49.49h10.06l19.52,49.49h-9l-4.67-12.37H930.94l-4.73,12.37Zm32.5-20-7.92-21-8,21Z"/><path class="cls-1" d="M1004.14,119.66H975.6V70.17h8.47V111.8h20.07Z"/><path class="cls-1" d="M1052.76,120.32c-15.45,0-26.06-10.5-26.06-25.52,0-14.41,11.16-25.24,25.84-25.24a24.93,24.93,0,0,1,16.45,5.5l-4.68,6.43a18.23,18.23,0,0,0-11.77-4.06c-10.06,0-17.15,7.86-17.15,17.37,0,10,7,17.6,17.37,17.6a20.15,20.15,0,0,0,12.49-4l4.73,6.38C1064.92,118.83,1059,120.32,1052.76,120.32Z"/><path class="cls-1" d="M1075,119.66l19.52-49.49h10.06l19.53,49.49h-9l-4.68-12.37h-21.78l-4.72,12.37Zm32.5-20-7.92-21-8,21Z"/><path class="cls-1" d="M1175.19,119.66h-9.68l-23.92-37.73v37.73h-8.31V70.17h9.57l24,37.61V70.17h8.3Z"/><path class="cls-1" d="M1184.38,119.66l19.52-49.49H1214l19.52,49.49h-9l-4.67-12.37H1198l-4.73,12.37Zm32.5-20-7.92-21-8,21Z"/><path class="cls-1" d="M1242.68,119.66V70.17h16.83c16.93,0,23.86,10.78,24.08,24.19.28,14.69-6.7,25.3-23.7,25.3ZM1259,77.86h-8.08V112h7.42c12.93,0,16.56-6.54,16.56-17.6C1274.91,84.35,1269.68,77.86,1259,77.86Z"/><path class="cls-1" d="M1288.88,119.66l19.52-49.49h10.07L1338,119.66h-9l-4.67-12.37h-21.78l-4.73,12.37Zm32.5-20-7.92-21-8,21Z"/><path class="cls-2" d="M74.47,52.46,87.41,74.41,74.47,96.35,61.52,74.56Zm0,43.89H99.73l12.63,21.47H87.1Zm0,0H49.21L36.58,117.82H61.84Z"/></svg>